<svg xmlns="http://www.w3.org/2000/svg" viewBox="0 0 24 24" fill="currentColor"><path d="m12 8.81056 1.6352-2.32211C14.2721 5.58412 15.3179 5 16.5 5 18.433 5 20 6.567 20 8.5c0 2.8788-1.9593 5.6215-4.357 7.8358-1.1553 1.0669-2.3193 1.9245-3.1979 2.5163-.159.1071-.308.205-.4452.2935a26.8069 26.8069 0 0 1-.4452-.2935c-.8786-.5917-2.04254-1.4493-3.19785-2.5163C5.95926 14.1216 4 11.3788 4 8.5 4 6.567 5.567 5 7.5 5c1.18209 0 2.22794.58412 2.8648 1.48845L12 8.81056Zm-1.4443-4.8843C9.68172 3.3412 8.63071 3 7.5 3 4.46243 3 2 5.46243 2 8.5c0 7.5 9.9999 12.9852 9.9999 12.9852S22 16 22 8.5C22 5.46243 19.5376 3 16.5 3c-1.1307 0-2.1817.3412-3.0557.92626A5.53052 5.53052 0 0 0 12 5.33692a5.53052 5.53052 0 0 0-1.4443-1.41066Z" stroke="currentColor"/></svg>