<svg xmlns="http://www.w3.org/2000/svg" width="128" height="128" viewBox="0 0 256 256"><g fill="none"><rect width="256" height="256" fill="url(#a)" rx="60"/><rect width="256" height="256" fill="url(#b)" rx="60"/><path fill="#fff" d="M128 28c-27.1 0-30.6.1-41.2.6-10.7.5-18 2.2-24.3 4.6a49 49 0 0 0-17.7 11.6 49 49 0 0 0-11.6 17.7 73 73 0 0 0-4.6 24.3c-.5 10.6-.6 14-.6 41.2s.1 30.6.6 41.2c.5 10.7 2.2 18 4.6 24.3a49 49 0 0 0 11.6 17.7 49 49 0 0 0 17.7 11.6 73.5 73.5 0 0 0 24.3 4.6c10.6.5 14 .6 41.2.6 27.2 0 30.6-.1 41.2-.6 10.7-.5 18-2.2 24.3-4.6a49 49 0 0 0 17.7-11.6 49 49 0 0 0 11.5-17.7 74.1 74.1 0 0 0 4.7-24.3c.5-10.6.6-14 .6-41.2s-.1-30.6-.6-41.2a74 74 0 0 0-4.7-24.3 49 49 0 0 0-11.5-17.7c-5.6-5.6-11.1-9-17.7-11.5a73.6 73.6 0 0 0-24.3-4.7A710 710 0 0 0 128 28zm-9 18h9c26.7 0 29.9.1 40.4.6 9.8.4 15 2 18.6 3.4 4.7 1.9 8 4 11.5 7.5A31 31 0 0 1 206 69c1.3 3.5 3 8.8 3.4 18.6.5 10.5.6 13.7.6 40.4s-.1 29.8-.6 40.4c-.4 9.7-2 15-3.4 18.5a31 31 0 0 1-7.5 11.5A31 31 0 0 1 187 206c-3.5 1.4-8.8 3-18.6 3.5a696 696 0 0 1-40.4.5 696 696 0 0 1-40.4-.5c-9.7-.5-15-2.1-18.6-3.5-4.6-1.8-8-4-11.5-7.5S52 191.6 50 187c-1.3-3.5-3-8.8-3.4-18.5-.5-10.6-.6-13.7-.6-40.4s.1-29.9.6-40.4c.4-9.8 2-15 3.4-18.6 1.9-4.7 4-8 7.5-11.5S64.4 51.8 69 50c3.6-1.4 8.9-3 18.6-3.4 9.2-.5 12.8-.6 31.4-.6zm62.4 16.6a12 12 0 1 0 0 24 12 12 0 0 0 0-24zm-53.4 14a51.4 51.4 0 1 0 0 102.8 51.4 51.4 0 0 0 0-102.8zm0 18a33.3 33.3 0 1 1 0 66.7 33.3 33.3 0 0 1 0-66.6"/><defs><radialGradient id="a" cx="0" cy="0" r="1" gradientTransform="matrix(0 -253.715 235.975 0 68 275.7)" gradientUnits="userSpaceOnUse"><stop stop-color="#FD5"/><stop offset=".1" stop-color="#FD5"/><stop offset=".5" stop-color="#FF543E"/><stop offset="1" stop-color="#C837AB"/></radialGradient><radialGradient id="b" cx="0" cy="0" r="1" gradientTransform="matrix(22.25952 111.2061 -458.39518 91.75449 -42.9 18.4)" gradientUnits="userSpaceOnUse"><stop stop-color="#3771C8"/><stop offset=".1" stop-color="#3771C8"/><stop offset="1" stop-color="#60F" stop-opacity="0"/></radialGradient></defs></g></svg>