<svg xmlns="http://www.w3.org/2000/svg" viewBox="0 0 24 24" fill="currentColor"><path d="M2 22c0-4.4183 3.58172-8 8-8 4.4183 0 8 3.5817 8 8h-2c0-3.3137-2.6863-6-6-6-3.31371 0-6 2.6863-6 6H2Zm8-9c-3.315 0-6-2.685-6-6s2.685-6 6-6 6 2.685 6 6-2.685 6-6 6Zm0-2c2.21 0 4-1.79 4-4s-1.79-4-4-4-4 1.79-4 4 1.79 4 4 4Zm8.2837 3.7028C21.0644 15.9561 23 18.752 23 22h-2c0-2.436-1.4517-4.5329-3.5372-5.4729l.8209-1.8243Zm-.6875-11.28959C19.5944 4.23703 21 6.20361 21 8.5c0 2.8702-2.1958 5.2252-5 5.4776v-2.013c1.6967-.2424 3-1.7006 3-3.4646 0-1.38065-.7984-2.57397-1.959-3.14365l.5552-1.94314Z"/></svg>