<svg xmlns="http://www.w3.org/2000/svg" viewBox="0 0 24 24" fill="currentColor"><path d="M9.37 10.68c.93 1.65 2.3 3.02 3.95 3.95l.88-1.23a1 1 0 0 1 1.3-.3c1.4.77 2.96 1.24 4.58 1.36a1 1 0 0 1 .92 1v4.46a1 1 0 0 1-.9 1A15.5 15.5 0 0 1 3.08 3.9a1 1 0 0 1 1-.9h4.46a1 1 0 0 1 1 .92c.12 1.62.6 3.18 1.36 4.58a1 1 0 0 1-.3 1.3l-1.23.88Zm-2.53-.65 1.9-1.36A13.4 13.4 0 0 1 7.64 5H5.02L5 5.5A13.5 13.5 0 0 0 19 19v-2.65c-1.27-.19-2.5-.56-3.67-1.1l-1.36 1.9c-.54-.2-1.07-.46-1.58-.74l-.06-.04a12.56 12.56 0 0 1-4.7-4.7l-.04-.06c-.28-.5-.53-1.04-.75-1.58Z"/></svg>