<svg xmlns="http://www.w3.org/2000/svg" width="128" height="128" viewBox="0 0 16 16" fill="currentColor"><path d="m11.4 9.5-1.3-.6c-.2-.1-.2-.1-.4 0l-.6.8c-.2.1-.2.2-.4 0a5.1 5.1 0 0 1-1.4-1 5.3 5.3 0 0 1-1-1.2c-.2-.2 0-.3 0-.4l.3-.3a1.4 1.4 0 0 0 .2-.3.4.4 0 0 0 0-.3l-.6-1.4c-.2-.4-.3-.3-.4-.3h-.4a.7.7 0 0 0-.5.2 2.1 2.1 0 0 0-.7 1.6A3.6 3.6 0 0 0 5 8.2 8.3 8.3 0 0 0 8.2 11l1 .4a2.5 2.5 0 0 0 1.2 0 2 2 0 0 0 1.3-.8 1.7 1.7 0 0 0 0-.9l-.3-.2"/><path d="M13.3 2.7A7.4 7.4 0 0 0 8 .5a7.4 7.4 0 0 0-6.4 11.2l-1 3.8 4-1a7.4 7.4 0 0 0 3.5.9H8a7.4 7.4 0 0 0 5.3-12.7M8 14a6.1 6.1 0 0 1-3.1-.9h-.3l-2.3.5.6-2.3-.1-.2a6.2 6.2 0 0 1 9.6-7.6 6.1 6.1 0 0 1 1.8 4.3A6.2 6.2 0 0 1 8 14.1"/></svg>